<?xml version="1.0" standalone="no"?>
<!DOCTYPE svg PUBLIC "-//W3C//DTD SVG 20010904//EN"
 "http://www.w3.org/TR/2001/REC-SVG-20010904/DTD/svg10.dtd">
<svg version="1.0" xmlns="http://www.w3.org/2000/svg"
 width="1024.000000pt" height="1024.000000pt" viewBox="0 0 1024.000000 1024.000000"
 preserveAspectRatio="xMidYMid meet">
<metadata>
Created by potrace 1.14, written by Peter Selinger 2001-2017
</metadata>
<g transform="translate(0.000000,1024.000000) scale(0.100000,-0.100000)"
fill="#000000" stroke="none">
<path d="M4887 10234 c-1 -1 -114 -5 -252 -9 -137 -3 -270 -8 -295 -10 -25 -2
-91 -6 -148 -10 -57 -3 -120 -8 -140 -10 -20 -2 -62 -6 -92 -10 -30 -3 -82 -8
-115 -10 -33 -3 -76 -7 -95 -10 -19 -2 -60 -7 -90 -10 -30 -3 -86 -10 -125
-15 -38 -6 -90 -12 -115 -15 -25 -3 -99 -14 -165 -26 -66 -11 -136 -22 -155
-25 -19 -3 -100 -19 -180 -35 -80 -16 -156 -32 -170 -34 -46 -8 -462 -115
-472 -121 -5 -4 -32 -13 -59 -20 -348 -98 -758 -271 -994 -419 -322 -202 -503
-413 -562 -654 -14 -56 -16 -145 -17 -583 -1 -284 -4 -520 -8 -523 -4 -4 -62
-8 -130 -10 -92 -2 -137 -8 -179 -23 -148 -53 -261 -171 -306 -321 -15 -51
-17 -142 -17 -936 l-1 -880 28 -76 c36 -97 101 -180 191 -240 84 -56 159 -76
304 -78 58 -1 109 -5 112 -7 3 -3 5 -742 6 -1642 0 -1508 2 -1642 17 -1701 33
-122 79 -201 171 -294 120 -119 243 -178 399 -192 21 -2 41 -6 45 -9 3 -4 7
-167 8 -364 1 -196 5 -370 8 -387 52 -241 238 -437 476 -501 56 -15 116 -17
450 -18 385 0 440 3 521 24 177 48 370 235 428 414 30 93 33 136 35 505 l1
334 1900 0 c1045 -1 1907 -2 1916 -2 15 -1 16 -36 17 -348 0 -393 6 -441 67
-567 64 -131 206 -263 337 -315 102 -41 174 -46 580 -45 329 1 392 3 447 18
76 21 176 68 217 102 73 62 88 77 128 126 73 91 114 179 133 283 4 22 7 199 7
392 1 194 3 353 6 354 3 0 55 2 115 4 126 4 140 7 215 37 111 44 194 123 249
235 58 118 55 26 56 1865 l0 1698 100 1 c146 1 201 11 290 56 67 34 163 135
198 207 52 106 52 109 51 1037 -1 863 -1 864 -23 927 -45 129 -133 229 -252
284 -76 36 -99 40 -232 43 -65 2 -122 6 -125 10 -4 3 -7 239 -8 523 -1 370 -5
531 -13 567 -7 28 -14 57 -16 66 -4 20 -58 135 -82 174 -32 54 -121 161 -175
211 -84 78 -115 102 -243 186 -249 164 -643 334 -1071 462 -105 31 -454 122
-509 132 -11 2 -74 15 -140 28 -66 14 -190 37 -275 51 -85 14 -167 28 -181 30
-15 3 -47 7 -70 10 -24 3 -60 8 -79 10 -70 10 -296 36 -335 39 -22 2 -78 7
-125 11 -47 3 -99 8 -115 10 -17 2 -73 7 -125 10 -52 4 -117 8 -145 10 -139
10 -999 26 -1008 19z m2080 -1297 c63 -33 68 -56 68 -302 0 -250 -5 -268 -77
-301 -36 -16 -150 -17 -1841 -17 -2003 0 -1850 -6 -1892 66 -18 29 -20 54 -22
242 -2 271 11 307 116 324 19 4 840 6 1825 6 1674 -1 1793 -2 1823 -18z
m-2167 -2859 l0 -1599 -1172 4 c-645 1 -1186 6 -1202 10 -231 61 -419 242
-482 463 -15 53 -17 159 -19 1102 -1 828 1 1058 12 1110 22 112 86 225 179
317 94 94 184 146 299 173 73 17 149 19 1231 19 l1154 0 0 -1599z m3033 1580
c26 -9 47 -14 47 -12 0 3 37 -14 82 -38 169 -88 300 -257 344 -445 4 -15 8
-494 9 -1063 1 -815 -1 -1050 -12 -1105 -35 -188 -198 -388 -378 -464 -124
-52 -94 -51 -1332 -51 l-1153 0 0 1598 0 1599 1173 -2 c1037 -1 1177 -3 1220
-17z m-5425 -4158 c162 -39 334 -184 413 -348 79 -164 77 -388 -6 -551 -83
-165 -267 -308 -440 -344 -67 -14 -200 -15 -258 -2 -196 42 -373 185 -458 371
-28 62 -33 78 -47 164 -44 256 92 521 338 658 132 73 294 92 458 52z m5662 16
c60 -5 159 -32 175 -47 5 -5 15 -9 22 -9 19 0 122 -74 177 -127 57 -56 113
-137 143 -208 19 -44 26 -66 40 -125 8 -36 9 -179 1 -225 -42 -239 -239 -451
-477 -511 -265 -67 -531 41 -692 281 -129 191 -131 472 -5 669 85 132 226 242
363 282 52 15 169 32 188 28 6 -2 35 -5 65 -8z"/>
</g>
</svg>
